<svg width="77" height="77" viewBox="0 0 77 77" fill="none" xmlns="http://www.w3.org/2000/svg">
<path d="M23.935 62.0492H17.7749C8.34238 61.3755 4.10754 54.1247 4.10754 47.6759C4.10754 41.2272 8.34242 33.9443 17.6145 33.3026C18.9299 33.1743 20.0849 34.2009 20.1811 35.5484C20.2774 36.8638 19.283 38.0188 17.9355 38.1151C11.7113 38.5643 8.92004 43.2484 8.92004 47.708C8.92004 52.1676 11.7113 56.8517 17.9355 57.3009H23.935C25.2504 57.3009 26.3413 58.3917 26.3413 59.7072C26.3413 61.0226 25.2504 62.0492 23.935 62.0492Z" fill="#FFDA0C"/>
<path d="M53.4826 62.0492C53.4184 62.0492 53.3864 62.0492 53.3222 62.0492C52.0068 62.0492 50.7877 60.9583 50.7877 59.6429C50.7877 58.2633 51.8143 57.2367 53.1618 57.2367C57.1081 57.2367 60.6372 55.8571 63.3964 53.3867C68.4014 49.0234 68.7222 42.735 67.3747 38.3075C66.0272 33.9121 62.2734 28.875 55.7284 28.0729C54.6697 27.9446 53.8354 27.1425 53.6429 26.0838C52.3596 18.3838 48.221 13.0579 41.9326 11.1329C35.4518 9.1117 27.88 11.1009 23.1638 16.0417C18.5759 20.8221 17.5171 27.5275 20.1801 34.9067C20.6292 36.158 19.9877 37.5375 18.7365 37.9867C17.4852 38.4358 16.1056 37.7942 15.6564 36.5429C12.416 27.4954 13.8918 18.8329 19.6989 12.7371C25.6343 6.51295 35.1631 4.04251 43.3443 6.54501C50.8518 8.85501 56.1455 15.0471 58.0705 23.6454C64.6155 25.1213 69.8772 30.0942 71.9626 36.96C74.2405 44.4355 72.1872 52.1355 66.5726 57.0121C63.0114 60.2205 58.3592 62.0492 53.4826 62.0492Z" fill="#FFDA0C"/>
<path d="M38.5 71.4818C32.0512 71.4818 26.0196 68.0488 22.715 62.4984C22.3621 61.953 22.0092 61.3114 21.7205 60.6055C20.6296 58.3276 20.0521 55.7289 20.0521 53.0339C20.0521 42.8634 28.3296 34.5859 38.5 34.5859C48.6704 34.5859 56.9479 42.8634 56.9479 53.0339C56.9479 55.7609 56.3705 58.3276 55.2155 60.7018C54.9588 61.3114 54.6059 61.953 54.2209 62.5626C50.9805 68.0489 44.9487 71.4818 38.5 71.4818ZM38.5 39.3984C30.9925 39.3984 24.8646 45.5264 24.8646 53.0339C24.8646 55.023 25.2817 56.8838 26.0837 58.5843C26.3404 59.1297 26.5649 59.5788 26.8216 59.9959C29.2599 64.1347 33.7195 66.6693 38.4679 66.6693C43.2162 66.6693 47.6758 64.1347 50.082 60.0601C50.3708 59.5789 50.6276 59.1297 50.8201 58.6805C51.6863 56.9159 52.1033 55.0551 52.1033 53.0659C52.1354 45.5263 46.0075 39.3984 38.5 39.3984Z" fill="#FFDA0C"/>
<path d="M36.6709 58.6162C36.0613 58.6162 35.4519 58.3916 34.9706 57.9103L31.7942 54.7341C30.8638 53.8036 30.8638 52.2637 31.7942 51.3332C32.7246 50.4028 34.2646 50.4028 35.195 51.3332L36.7351 52.8732L41.8684 48.1249C42.863 47.2266 44.3709 47.2907 45.2692 48.2532C46.1676 49.2157 46.1035 50.7558 45.141 51.6541L38.3072 57.9745C37.8259 58.3916 37.2484 58.6162 36.6709 58.6162Z" fill="#FFDA0C"/>
</svg>
