<svg width="200" height="104" viewBox="0 0 200 104" fill="none" xmlns="http://www.w3.org/2000/svg">
<g clip-path="url(#clip0_127_2281)">
<path fill-rule="evenodd" clip-rule="evenodd" d="M198.315 1.68978H1.68539V102.31H198.315V1.68978ZM200 0V104H0V0H200Z" fill="#FFDA0C"/>
<path d="M123.848 71.0216V73.1091C123.848 73.9562 123.755 74.7015 123.569 75.3451C123.388 75.9832 123.122 76.5167 122.77 76.9458C122.419 77.3748 121.997 77.6966 121.503 77.9111C121.009 78.1257 120.452 78.2329 119.833 78.2329C119.234 78.2329 118.689 78.1257 118.195 77.9111C117.701 77.6966 117.276 77.3748 116.919 76.9458C116.563 76.5167 116.286 75.9832 116.088 75.3451C115.896 74.7015 115.8 73.9562 115.8 73.1091V71.0216C115.8 70.1745 115.896 69.432 116.088 68.7939C116.28 68.1503 116.554 67.614 116.911 67.185C117.268 66.7559 117.693 66.4341 118.187 66.2196C118.68 65.9996 119.226 65.8896 119.824 65.8896C120.444 65.8896 121.001 65.9996 121.495 66.2196C121.994 66.4341 122.417 66.7559 122.762 67.185C123.113 67.614 123.382 68.1503 123.569 68.7939C123.755 69.432 123.848 70.1745 123.848 71.0216ZM122.351 73.1091V71.0051C122.351 70.3451 122.296 69.7785 122.186 69.3055C122.076 68.8269 121.915 68.4364 121.701 68.1338C121.487 67.8313 121.223 67.6085 120.911 67.4655C120.598 67.317 120.236 67.2427 119.824 67.2427C119.435 67.2427 119.084 67.317 118.771 67.4655C118.464 67.6085 118.2 67.8313 117.981 68.1338C117.761 68.4364 117.591 68.8269 117.471 69.3055C117.355 69.7785 117.298 70.3451 117.298 71.0051V73.1091C117.298 73.7747 117.355 74.3467 117.471 74.8253C117.591 75.2983 117.761 75.6889 117.981 75.9969C118.206 76.2995 118.475 76.525 118.787 76.6735C119.1 76.8165 119.448 76.888 119.833 76.888C120.244 76.888 120.606 76.8165 120.919 76.6735C121.237 76.525 121.5 76.2995 121.709 75.9969C121.923 75.6889 122.082 75.2983 122.186 74.8253C122.296 74.3467 122.351 73.7747 122.351 73.1091Z" fill="black"/>
<path d="M107.66 73.3566H105.043V72.0613H107.66C108.154 72.0613 108.551 71.9622 108.853 71.7642C109.16 71.5662 109.383 71.2912 109.52 70.9391C109.662 70.5871 109.734 70.1856 109.734 69.7345C109.734 69.322 109.662 68.9342 109.52 68.5711C109.383 68.2081 109.16 67.9166 108.853 67.6965C108.551 67.471 108.154 67.3582 107.66 67.3582H105.356V78.0679H103.841V66.0546H107.66C108.433 66.0546 109.086 66.2114 109.618 66.5249C110.151 66.8384 110.554 67.273 110.828 67.8285C111.108 68.3786 111.248 69.0084 111.248 69.718C111.248 70.4881 111.108 71.1454 110.828 71.69C110.554 72.2345 110.151 72.6498 109.618 72.9358C109.086 73.2164 108.433 73.3566 107.66 73.3566Z" fill="black"/>
<path d="M89.6524 66.0546V78.0679H88.1382V66.0546H89.6524ZM91.9402 71.5579V72.8121H89.529V71.5579H91.9402ZM99.0587 71.0216V73.1091C99.0587 73.9562 98.9654 74.7015 98.7789 75.3451C98.5978 75.9832 98.3318 76.5167 97.9806 76.9458C97.6295 77.3748 97.2071 77.6966 96.7133 77.9111C96.2195 78.1257 95.6627 78.2329 95.0427 78.2329C94.4447 78.2329 93.8988 78.1257 93.4051 77.9111C92.9113 77.6966 92.4861 77.3748 92.1295 76.9458C91.7729 76.5167 91.4958 75.9832 91.2983 75.3451C91.1063 74.7015 91.0103 73.9562 91.0103 73.1091V71.0216C91.0103 70.1745 91.1063 69.432 91.2983 68.7939C91.4903 68.1503 91.7646 67.614 92.1213 67.185C92.4779 66.7559 92.9031 66.4341 93.3968 66.2196C93.8906 65.9996 94.4365 65.8896 95.0345 65.8896C95.6544 65.8896 96.2113 65.9996 96.7051 66.2196C97.2043 66.4341 97.6268 66.7559 97.9724 67.185C98.3235 67.614 98.5924 68.1503 98.7789 68.7939C98.9654 69.432 99.0587 70.1745 99.0587 71.0216ZM97.5609 73.1091V71.0051C97.5609 70.3451 97.5061 69.7785 97.3963 69.3055C97.2866 68.8269 97.1248 68.4364 96.9108 68.1338C96.6968 67.8313 96.4335 67.6085 96.1208 67.4655C95.8081 67.317 95.446 67.2427 95.0345 67.2427C94.645 67.2427 94.2938 67.317 93.9811 67.4655C93.6739 67.6085 93.4105 67.8313 93.1911 68.1338C92.9716 68.4364 92.8016 68.8269 92.6809 69.3055C92.5657 69.7785 92.508 70.3451 92.508 71.0051V73.1091C92.508 73.7747 92.5657 74.3467 92.6809 74.8253C92.8016 75.2983 92.9716 75.6889 93.1911 75.9969C93.416 76.2995 93.6849 76.525 93.9976 76.6735C94.3103 76.8165 94.6587 76.888 95.0427 76.888C95.4542 76.888 95.8163 76.8165 96.129 76.6735C96.4472 76.525 96.7106 76.2995 96.919 75.9969C97.133 75.6889 97.2921 75.2983 97.3963 74.8253C97.5061 74.3467 97.5609 73.7747 97.5609 73.1091Z" fill="black"/>
<path d="M82.1211 66.0546V67.3582H77.4139V78.0679H75.8997V66.0546H82.1211ZM77.0929 70.9474H79.8169C80.5575 70.9474 81.183 71.0959 81.6932 71.3929C82.2089 71.6845 82.5984 72.0943 82.8618 72.6223C83.1306 73.1504 83.265 73.7692 83.265 74.4788C83.265 75.0068 83.1882 75.4909 83.0346 75.9309C82.8865 76.3655 82.6643 76.745 82.368 77.0695C82.0772 77.3886 81.7179 77.6361 81.29 77.8121C80.862 77.9826 80.371 78.0679 79.8169 78.0679H75.8997V66.0546H77.4139V76.7725H79.8169C80.2777 76.7725 80.6481 76.6652 80.9279 76.4507C81.2132 76.2307 81.4216 75.9447 81.5533 75.5926C81.685 75.2406 81.7508 74.8638 81.7508 74.4623C81.7508 74.0607 81.685 73.6922 81.5533 73.3566C81.4216 73.0211 81.2132 72.7543 80.9279 72.5563C80.6481 72.3528 80.2777 72.251 79.8169 72.251H77.0929V70.9474Z" fill="black"/>
<path d="M168.457 56.4951V57.7905H163.256V56.4951H168.457ZM163.527 45.7772V57.7905H162.013V45.7772H163.527ZM167.757 50.9423V52.2377H163.256V50.9423H167.757ZM168.374 45.7772V47.0809H163.256V45.7772H168.374Z" fill="black"/>
<path d="M156.803 50.7443V52.8317C156.803 53.6788 156.709 54.4242 156.523 55.0677C156.342 55.7058 156.076 56.2394 155.724 56.6684C155.373 57.0974 154.951 57.4192 154.457 57.6338C153.963 57.8483 153.407 57.9555 152.787 57.9555C152.189 57.9555 151.643 57.8483 151.149 57.6338C150.655 57.4192 150.23 57.0974 149.873 56.6684C149.517 56.2394 149.24 55.7058 149.042 55.0677C148.85 54.4242 148.754 53.6788 148.754 52.8317V50.7443C148.754 49.8972 148.85 49.1546 149.042 48.5165C149.234 47.873 149.508 47.3366 149.865 46.9076C150.222 46.4786 150.647 46.1568 151.141 45.9422C151.634 45.7222 152.18 45.6122 152.778 45.6122C153.398 45.6122 153.955 45.7222 154.449 45.9422C154.948 46.1568 155.371 46.4786 155.716 46.9076C156.067 47.3366 156.336 47.873 156.523 48.5165C156.709 49.1546 156.803 49.8972 156.803 50.7443ZM155.305 52.8317V50.7278C155.305 50.0677 155.25 49.5011 155.14 49.0281C155.03 48.5495 154.869 48.159 154.655 47.8565C154.441 47.5539 154.177 47.3311 153.865 47.1881C153.552 47.0396 153.19 46.9654 152.778 46.9654C152.389 46.9654 152.038 47.0396 151.725 47.1881C151.418 47.3311 151.154 47.5539 150.935 47.8565C150.715 48.159 150.545 48.5495 150.425 49.0281C150.31 49.5011 150.252 50.0677 150.252 50.7278V52.8317C150.252 53.4973 150.31 54.0694 150.425 54.5479C150.545 55.021 150.715 55.4115 150.935 55.7195C151.16 56.0221 151.429 56.2476 151.741 56.3961C152.054 56.5391 152.403 56.6106 152.787 56.6106C153.198 56.6106 153.56 56.5391 153.873 56.3961C154.191 56.2476 154.454 56.0221 154.663 55.7195C154.877 55.4115 155.036 55.021 155.14 54.5479C155.25 54.0694 155.305 53.4973 155.305 52.8317Z" fill="black"/>
<path d="M138.548 45.7772V57.7905H137.034V45.7772H138.548ZM144.712 45.7772L140.383 52.3862H137.948L137.692 51.066H139.47L142.836 45.7772H144.712ZM143.149 57.7905L139.544 52.1799L140.392 50.7855L144.992 57.7905H143.149Z" fill="black"/>
<path d="M130.531 53.9704H132.046C132.007 54.7954 131.84 55.5078 131.544 56.1073C131.253 56.7014 130.828 57.158 130.268 57.477C129.714 57.796 129.02 57.9555 128.186 57.9555C127.588 57.9555 127.048 57.8373 126.565 57.6007C126.082 57.3642 125.668 57.0259 125.322 56.5859C124.982 56.1403 124.721 55.6068 124.54 54.9852C124.359 54.3637 124.269 53.6651 124.269 52.8895V50.67C124.269 49.8999 124.359 49.2041 124.54 48.5825C124.727 47.961 124.993 47.4302 125.339 46.9901C125.69 46.5446 126.115 46.2035 126.614 45.967C127.119 45.7305 127.69 45.6122 128.326 45.6122C129.105 45.6122 129.763 45.769 130.301 46.0825C130.844 46.3905 131.261 46.8443 131.552 47.4439C131.848 48.038 132.013 48.7668 132.046 49.6304H130.531C130.493 48.9978 130.394 48.4835 130.235 48.0875C130.076 47.6859 129.84 47.3917 129.527 47.2046C129.22 47.0121 128.82 46.9159 128.326 46.9159C127.887 46.9159 127.506 47.0039 127.182 47.1799C126.864 47.3559 126.601 47.6089 126.392 47.939C126.189 48.2635 126.035 48.6568 125.931 49.1188C125.832 49.5754 125.783 50.0869 125.783 50.6535V52.8895C125.783 53.4176 125.824 53.9099 125.907 54.3664C125.994 54.823 126.131 55.2245 126.318 55.571C126.51 55.9121 126.76 56.1788 127.067 56.3714C127.374 56.5639 127.747 56.6601 128.186 56.6601C128.74 56.6601 129.179 56.5694 129.503 56.3879C129.826 56.2064 130.065 55.9176 130.219 55.5215C130.378 55.1255 130.482 54.6084 130.531 53.9704Z" fill="black"/>
<path d="M119.733 56.4951V57.7905H114.532V56.4951H119.733ZM114.804 45.7772V57.7905H113.289V45.7772H114.804ZM119.034 50.9423V52.2377H114.532V50.9423H119.034ZM119.651 45.7772V47.0809H114.532V45.7772H119.651Z" fill="black"/>
<path d="M100.162 45.7772H101.676V49.5314C101.676 50.153 101.745 50.6398 101.882 50.9918C102.025 51.3438 102.236 51.5914 102.516 51.7344C102.801 51.8774 103.158 51.9489 103.586 51.9489C103.865 51.9489 104.137 51.9351 104.4 51.9076C104.664 51.8801 104.919 51.8416 105.166 51.7921C105.418 51.7426 105.665 51.6821 105.906 51.6106C106.148 51.5391 106.384 51.4621 106.614 51.3796V52.6832C106.389 52.7657 106.167 52.8427 105.947 52.9142C105.728 52.9858 105.5 53.0463 105.264 53.0958C105.028 53.1453 104.773 53.1838 104.499 53.2113C104.23 53.2388 103.926 53.2525 103.586 53.2525C102.872 53.2525 102.261 53.1315 101.75 52.8895C101.24 52.642 100.848 52.2459 100.574 51.7014C100.299 51.1568 100.162 50.4335 100.162 49.5314V45.7772ZM106.252 45.7772H107.766V57.7905H106.252V45.7772Z" fill="black"/>
<path d="M88.7959 55.0347L93.462 45.7772H94.9762V57.7905H93.462V48.5248L88.7959 57.7905H87.2899V45.7772H88.7959V55.0347Z" fill="black"/>
<path d="M81.1906 56.4951V57.7905H73.6771V56.4951H81.1906ZM73.9075 56.4951V60.7443H72.4015L72.3933 56.4951H73.9075ZM82.5073 56.4951L82.4908 60.7361H80.993V56.4951H82.5073ZM79.7751 45.7772V47.0809H75.4299V45.7772H79.7751ZM81.1 45.7772V57.7905H79.5858V45.7772H81.1ZM74.9115 45.7772H76.4257L76.2117 50.6122C76.1843 51.3383 76.1294 52.0094 76.0471 52.6255C75.9648 53.236 75.8579 53.7943 75.7262 54.3004C75.6 54.8064 75.4546 55.2602 75.29 55.6618C75.1254 56.0578 74.9471 56.4016 74.7551 56.6932C74.5631 56.9792 74.3601 57.2157 74.1461 57.4027C73.9322 57.5842 73.7127 57.7135 73.4878 57.7905H72.8541V56.4951H73.2738C73.3945 56.3411 73.5262 56.1183 73.6688 55.8268C73.817 55.5353 73.9596 55.1585 74.0968 54.6964C74.2394 54.2289 74.3628 53.6596 74.4671 52.9885C74.5768 52.3174 74.6509 51.5253 74.6893 50.6122L74.9115 45.7772Z" fill="black"/>
<path d="M61.3069 55.0347L65.973 45.7772H67.4872V57.7905H65.973V48.5248L61.3069 57.7905H59.8009V45.7772H61.3069V55.0347Z" fill="black"/>
<path d="M51.3314 53.0793H48.7145V51.7839H51.3314C51.8252 51.7839 52.2229 51.6849 52.5247 51.4868C52.8319 51.2888 53.0541 51.0138 53.1913 50.6618C53.3339 50.3097 53.4052 49.9082 53.4052 49.4571C53.4052 49.0446 53.3339 48.6568 53.1913 48.2938C53.0541 47.9307 52.8319 47.6392 52.5247 47.4192C52.2229 47.1936 51.8252 47.0809 51.3314 47.0809H49.0272V57.7905H47.5129V45.7772H51.3314C52.105 45.7772 52.7579 45.934 53.29 46.2475C53.8222 46.5611 54.2254 46.9956 54.4998 47.5512C54.7796 48.1012 54.9195 48.731 54.9195 49.4406C54.9195 50.2107 54.7796 50.868 54.4998 51.4126C54.2254 51.9571 53.8222 52.3724 53.29 52.6585C52.7579 52.939 52.105 53.0793 51.3314 53.0793Z" fill="black"/>
<path d="M33.324 45.7772V57.7905H31.8098V45.7772H33.324ZM35.6118 51.2806V52.5347H33.2006V51.2806H35.6118ZM42.7303 50.7443V52.8317C42.7303 53.6788 42.637 54.4242 42.4505 55.0677C42.2695 55.7058 42.0034 56.2394 41.6523 56.6684C41.3011 57.0974 40.8787 57.4192 40.3849 57.6338C39.8911 57.8483 39.3343 57.9555 38.7143 57.9555C38.1163 57.9555 37.5704 57.8483 37.0767 57.6338C36.5829 57.4192 36.1577 57.0974 35.8011 56.6684C35.4445 56.2394 35.1674 55.7058 34.9699 55.0677C34.7779 54.4242 34.6819 53.6788 34.6819 52.8317V50.7443C34.6819 49.8972 34.7779 49.1546 34.9699 48.5165C35.1619 47.873 35.4363 47.3366 35.7929 46.9076C36.1495 46.4786 36.5747 46.1568 37.0684 45.9422C37.5622 45.7222 38.1081 45.6122 38.7061 45.6122C39.3261 45.6122 39.8829 45.7222 40.3767 45.9422C40.8759 46.1568 41.2984 46.4786 41.644 46.9076C41.9951 47.3366 42.264 47.873 42.4505 48.5165C42.637 49.1546 42.7303 49.8972 42.7303 50.7443ZM41.2325 52.8317V50.7278C41.2325 50.0677 41.1777 49.5011 41.068 49.0281C40.9582 48.5495 40.7964 48.159 40.5824 47.8565C40.3685 47.5539 40.1051 47.3311 39.7924 47.1881C39.4797 47.0396 39.1176 46.9654 38.7061 46.9654C38.3166 46.9654 37.9655 47.0396 37.6527 47.1881C37.3455 47.3311 37.0822 47.5539 36.8627 47.8565C36.6433 48.159 36.4732 48.5495 36.3525 49.0281C36.2373 49.5011 36.1797 50.0677 36.1797 50.7278V52.8317C36.1797 53.4973 36.2373 54.0694 36.3525 54.5479C36.4732 55.021 36.6433 55.4115 36.8627 55.7195C37.0876 56.0221 37.3565 56.2476 37.6692 56.3961C37.9819 56.5391 38.3303 56.6106 38.7143 56.6106C39.1258 56.6106 39.4879 56.5391 39.8006 56.3961C40.1188 56.2476 40.3822 56.0221 40.5907 55.7195C40.8046 55.4115 40.9637 55.021 41.068 54.5479C41.1777 54.0694 41.2325 53.4973 41.2325 52.8317Z" fill="black"/>
<path d="M183.617 36.2178V37.5131H178.416V36.2178H183.617ZM178.687 25.4999V37.5131H177.173V25.4999H178.687ZM182.917 30.6649V31.9603H178.416V30.6649H182.917ZM183.534 25.4999V26.8035H178.416V25.4999H183.534Z" fill="black"/>
<path d="M171.963 30.4669V32.5544C171.963 33.4015 171.869 34.1468 171.683 34.7904C171.502 35.4284 171.236 35.962 170.884 36.391C170.533 36.8201 170.111 37.1419 169.617 37.3564C169.123 37.5709 168.567 37.6782 167.947 37.6782C167.349 37.6782 166.803 37.5709 166.309 37.3564C165.815 37.1419 165.39 36.8201 165.033 36.391C164.677 35.962 164.4 35.4284 164.202 34.7904C164.01 34.1468 163.914 33.4015 163.914 32.5544V30.4669C163.914 29.6198 164.01 28.8772 164.202 28.2392C164.394 27.5956 164.668 27.0593 165.025 26.6302C165.382 26.2012 165.807 25.8794 166.301 25.6649C166.794 25.4449 167.34 25.3348 167.938 25.3348C168.558 25.3348 169.115 25.4449 169.609 25.6649C170.108 25.8794 170.531 26.2012 170.876 26.6302C171.227 27.0593 171.496 27.5956 171.683 28.2392C171.869 28.8772 171.963 29.6198 171.963 30.4669ZM170.465 32.5544V30.4504C170.465 29.7903 170.41 29.2238 170.3 28.7507C170.19 28.2722 170.029 27.8816 169.815 27.5791C169.601 27.2765 169.337 27.0538 169.025 26.9108C168.712 26.7622 168.35 26.688 167.938 26.688C167.549 26.688 167.198 26.7622 166.885 26.9108C166.578 27.0538 166.314 27.2765 166.095 27.5791C165.875 27.8816 165.705 28.2722 165.585 28.7507C165.469 29.2238 165.412 29.7903 165.412 30.4504V32.5544C165.412 33.2199 165.469 33.792 165.585 34.2705C165.705 34.7436 165.875 35.1341 166.095 35.4422C166.32 35.7447 166.589 35.9702 166.901 36.1187C167.214 36.2618 167.563 36.3333 167.947 36.3333C168.358 36.3333 168.72 36.2618 169.033 36.1187C169.351 35.9702 169.614 35.7447 169.823 35.4422C170.037 35.1341 170.196 34.7436 170.3 34.2705C170.41 33.792 170.465 33.2199 170.465 32.5544Z" fill="black"/>
<path d="M157.354 30.6649V31.9603H152.161V30.6649H157.354ZM152.367 25.4999V37.5131H150.853V25.4999H152.367ZM158.695 25.4999V37.5131H157.181V25.4999H158.695Z" fill="black"/>
<path d="M144.827 36.2178V37.5131H137.314V36.2178H144.827ZM137.544 36.2178V40.467H136.038L136.03 36.2178H137.544ZM146.144 36.2178L146.128 40.4587H144.63V36.2178H146.144ZM143.412 25.4999V26.8035H139.067V25.4999H143.412ZM144.737 25.4999V37.5131H143.223V25.4999H144.737ZM138.548 25.4999H140.062L139.849 30.3349C139.821 31.061 139.766 31.732 139.684 32.3481C139.602 32.9587 139.495 33.517 139.363 34.023C139.237 34.5291 139.091 34.9829 138.927 35.3844C138.762 35.7805 138.584 36.1242 138.392 36.4158C138.2 36.7018 137.997 36.9383 137.783 37.1254C137.569 37.3069 137.35 37.4361 137.125 37.5131H136.491V36.2178H136.911C137.031 36.0637 137.163 35.841 137.306 35.5494C137.454 35.2579 137.596 34.8811 137.734 34.4191C137.876 33.9515 138 33.3822 138.104 32.7111C138.214 32.0401 138.288 31.248 138.326 30.3349L138.548 25.4999Z" fill="black"/>
<path d="M131.93 30.4669V32.5544C131.93 33.4015 131.837 34.1468 131.651 34.7904C131.47 35.4284 131.204 35.962 130.852 36.391C130.501 36.8201 130.079 37.1419 129.585 37.3564C129.091 37.5709 128.534 37.6782 127.914 37.6782C127.316 37.6782 126.771 37.5709 126.277 37.3564C125.783 37.1419 125.358 36.8201 125.001 36.391C124.645 35.962 124.368 35.4284 124.17 34.7904C123.978 34.1468 123.882 33.4015 123.882 32.5544V30.4669C123.882 29.6198 123.978 28.8772 124.17 28.2392C124.362 27.5956 124.636 27.0593 124.993 26.6302C125.35 26.2012 125.775 25.8794 126.269 25.6649C126.762 25.4449 127.308 25.3348 127.906 25.3348C128.526 25.3348 129.083 25.4449 129.577 25.6649C130.076 25.8794 130.499 26.2012 130.844 26.6302C131.195 27.0593 131.464 27.5956 131.651 28.2392C131.837 28.8772 131.93 29.6198 131.93 30.4669ZM130.433 32.5544V30.4504C130.433 29.7903 130.378 29.2238 130.268 28.7507C130.158 28.2722 129.997 27.8816 129.783 27.5791C129.569 27.2765 129.305 27.0538 128.993 26.9108C128.68 26.7622 128.318 26.688 127.906 26.688C127.517 26.688 127.166 26.7622 126.853 26.9108C126.546 27.0538 126.282 27.2765 126.063 27.5791C125.843 27.8816 125.673 28.2722 125.553 28.7507C125.437 29.2238 125.38 29.7903 125.38 30.4504V32.5544C125.38 33.2199 125.437 33.792 125.553 34.2705C125.673 34.7436 125.843 35.1341 126.063 35.4422C126.288 35.7447 126.557 35.9702 126.869 36.1187C127.182 36.2618 127.53 36.3333 127.914 36.3333C128.326 36.3333 128.688 36.2618 129.001 36.1187C129.319 35.9702 129.582 35.7447 129.791 35.4422C130.005 35.1341 130.164 34.7436 130.268 34.2705C130.378 33.792 130.433 33.2199 130.433 32.5544Z" fill="black"/>
<path d="M115.742 32.8019H113.125V31.5065H115.742C116.236 31.5065 116.633 31.4075 116.935 31.2095C117.242 31.0114 117.465 30.7364 117.602 30.3844C117.744 30.0323 117.816 29.6308 117.816 29.1798C117.816 28.7672 117.744 28.3794 117.602 28.0164C117.465 27.6533 117.242 27.3618 116.935 27.1418C116.633 26.9163 116.236 26.8035 115.742 26.8035H113.438V37.5131H111.923V25.4999H115.742C116.515 25.4999 117.168 25.6566 117.7 25.9702C118.233 26.2837 118.636 26.7182 118.91 27.2738C119.19 27.8239 119.33 28.4537 119.33 29.1632C119.33 29.9333 119.19 30.5907 118.91 31.1352C118.636 31.6798 118.233 32.0951 117.7 32.3811C117.168 32.6616 116.515 32.8019 115.742 32.8019Z" fill="black"/>
<path d="M103.215 26.5642L99.9399 37.5131H98.3928L102.252 25.4999H103.223L103.215 26.5642ZM105.865 37.5131L102.59 26.5642L102.573 25.4999H103.553L107.412 37.5131H105.865ZM105.865 33.0659V34.3696H100.088V33.0659H105.865Z" fill="black"/>
<path d="M92.3675 30.6649V31.9603H87.1747V30.6649H92.3675ZM87.3804 25.4999V37.5131H85.8662V25.4999H87.3804ZM93.7089 25.4999V37.5131H92.1947V25.4999H93.7089Z" fill="black"/>
<path d="M76.8289 33.528L79.3718 25.4999H81.1165L77.6683 35.5082C77.5586 35.7887 77.4407 36.061 77.3145 36.325C77.1938 36.5835 77.0456 36.8146 76.8701 37.0181C76.6945 37.2216 76.4751 37.3839 76.2117 37.5049C75.9484 37.6259 75.6192 37.6864 75.2242 37.6864C75.1035 37.6864 74.9636 37.6782 74.8045 37.6617C74.6509 37.6507 74.5521 37.6369 74.5082 37.6204L74.5411 36.3498C74.5905 36.3608 74.692 36.3718 74.8456 36.3828C75.0047 36.3883 75.1172 36.391 75.183 36.391C75.4299 36.391 75.6192 36.3278 75.7509 36.2013C75.888 36.0747 75.995 35.9152 76.0718 35.7227C76.1486 35.5247 76.2227 35.3239 76.294 35.1204L76.8289 33.528ZM74.9197 25.4999L77.5038 32.9834L77.8576 34.4603L76.5821 34.5593L73.2327 25.4999H74.9197Z" fill="black"/>
<path d="M67.7423 36.2178V37.5131H60.2288V36.2178H67.7423ZM60.4592 36.2178V40.467H58.9532L58.945 36.2178H60.4592ZM69.059 36.2178L69.0425 40.4587H67.5448V36.2178H69.059ZM66.3268 25.4999V26.8035H61.9817V25.4999H66.3268ZM67.6518 25.4999V37.5131H66.1375V25.4999H67.6518ZM61.4632 25.4999H62.9774L62.7635 30.3349C62.736 31.061 62.6812 31.732 62.5989 32.3481C62.5166 32.9587 62.4096 33.517 62.2779 34.023C62.1517 34.5291 62.0064 34.9829 61.8418 35.3844C61.6772 35.7805 61.4989 36.1242 61.3069 36.4158C61.1148 36.7018 60.9118 36.9383 60.6979 37.1254C60.4839 37.3069 60.2645 37.4361 60.0395 37.5131H59.4058V36.2178H59.8255C59.9462 36.0637 60.0779 35.841 60.2206 35.5494C60.3687 35.2579 60.5113 34.8811 60.6485 34.4191C60.7911 33.9515 60.9146 33.3822 61.0188 32.7111C61.1285 32.0401 61.2026 31.248 61.241 30.3349L61.4632 25.4999Z" fill="black"/>
<path d="M46.3032 32.0263L42.7728 25.4999H44.5421L47.0356 30.7062H49.0189L48.7638 32.0263H46.3032ZM47.1015 31.9025L44.3858 37.5131H42.5012L46.1386 30.5329L47.1015 31.9025ZM49.6526 25.4999V37.5131H48.1466V25.4999H49.6526ZM54.9688 25.4999L51.4302 32.0263H49.0601L48.7967 30.7062H50.706L53.1995 25.4999H54.9688ZM53.3559 37.5131L50.6484 31.9025L51.6112 30.5329L55.2322 37.5131H53.3559Z" fill="black"/>
<path d="M38.632 36.2178V37.5131H33.431V36.2178H38.632ZM33.7026 25.4999V37.5131H32.1884V25.4999H33.7026ZM37.9325 30.6649V31.9603H33.431V30.6649H37.9325ZM38.5497 25.4999V26.8035H33.431V25.4999H38.5497Z" fill="black"/>
<path d="M17.0613 25.4999H18.5261L21.6616 35.2937L24.7888 25.4999H26.2536L22.2294 37.5131H21.0773L17.0613 25.4999ZM16.584 25.4999H17.8678L18.09 32.8266V37.5131H16.584V25.4999ZM25.4389 25.4999H26.7227V37.5131H25.2167V32.8266L25.4389 25.4999Z" fill="black"/>
</g>
<defs>
<clipPath id="clip0_127_2281">
<rect width="200" height="104" fill="white"/>
</clipPath>
</defs>
</svg>
