<svg width="77" height="77" viewBox="0 0 77 77" fill="none" xmlns="http://www.w3.org/2000/svg">
<path d="M51.3326 71.6098C50.2417 71.6098 49.183 71.289 48.2526 70.6795L34.585 61.5677H28.5213C27.7834 61.5677 27.0775 61.2149 26.6283 60.6374C26.1792 60.0278 26.0188 59.2577 26.2113 58.5519C26.4038 57.7819 26.5001 57.0119 26.5001 56.1777C26.5001 53.6111 25.5376 51.1407 23.8051 49.2157C21.848 47.0019 19.0567 45.7506 16.073 45.7506C13.2176 45.7506 10.5546 46.8735 8.59753 48.8947C7.98794 49.5364 7.05756 49.7931 6.22339 49.5365C5.38922 49.2798 4.71548 48.606 4.52298 47.7398C4.20215 46.3281 4.04175 44.7881 4.04175 43.1198V23.8698C4.04175 12.8331 11.453 5.42188 22.4897 5.42188H54.573C65.6097 5.42188 73.0209 12.8331 73.0209 23.8698V43.1198C73.0209 48.4777 71.2563 53.0976 67.8876 56.4664C65.0642 59.2897 61.3105 60.9903 56.9792 61.4394V65.9952C56.9792 68.0806 55.8242 69.9735 53.9954 70.9681C53.1292 71.3852 52.2309 71.6098 51.3326 71.6098ZM31.2805 56.7231H35.2909C35.7721 56.7231 36.2213 56.8514 36.6384 57.1402L50.9155 66.669C51.2363 66.8936 51.5571 66.7972 51.7175 66.701C51.8779 66.6047 52.1667 66.4123 52.1667 65.9631V59.1293C52.1667 57.8139 53.2576 56.7231 54.573 56.7231C58.6476 56.7231 62.0805 55.4399 64.4867 53.0336C66.9251 50.5953 68.2084 47.1623 68.2084 43.0877V23.8377C68.2084 15.5602 62.8505 10.2023 54.573 10.2023H22.4897C14.2122 10.2023 8.85425 15.5602 8.85425 23.8377V42.7027C11.0359 41.5156 13.5063 40.906 16.073 40.906C20.4363 40.906 24.5751 42.7669 27.3984 45.9753C29.9009 48.7665 31.3126 52.3919 31.3126 56.1456C31.2805 56.3381 31.2805 56.5306 31.2805 56.7231Z" fill="#FFDA0C"/>
<path d="M16.0417 71.3854C12.2559 71.3854 8.6625 69.9738 5.87125 67.4392C4.74833 66.4767 3.75377 65.2896 2.98377 63.9742C1.5721 61.6642 0.802124 58.9371 0.802124 56.1458C0.802124 52.1354 2.34211 48.3817 5.10128 45.5263C7.98878 42.5425 11.8709 40.9062 16.0417 40.9062C20.405 40.9062 24.5438 42.7671 27.3671 45.9755C29.8696 48.7667 31.2813 52.3921 31.2813 56.1458C31.2813 57.365 31.1209 58.5841 30.8001 59.7391C30.4792 61.1829 29.8696 62.6909 29.0354 64.0063C26.3725 68.5621 21.3675 71.3854 16.0417 71.3854ZM16.0417 45.7187C13.1863 45.7187 10.5234 46.8416 8.56633 48.8629C6.67342 50.8199 5.61462 53.3867 5.61462 56.1458C5.61462 58.0387 6.12796 59.8995 7.12254 61.5037C7.63588 62.402 8.30958 63.2041 9.07958 63.8778C11.0046 65.6424 13.475 66.605 16.0417 66.605C19.7313 66.605 23.068 64.7121 24.9609 61.5679C25.5384 60.6696 25.9234 59.6751 26.1479 58.6484C26.3725 57.8143 26.4688 57.0121 26.4688 56.1779C26.4688 53.6113 25.5063 51.1409 23.7738 49.2159C21.8488 46.9701 19.0255 45.7187 16.0417 45.7187Z" fill="#FFDA0C"/>
<path d="M19.4743 61.8886C18.8647 61.8886 18.2551 61.6641 17.7738 61.1829L11.0042 54.4133C10.0738 53.4829 10.0738 51.9429 11.0042 51.0125C11.9346 50.0821 13.4746 50.0821 14.405 51.0125L21.1747 57.782C22.1051 58.7125 22.1051 60.2525 21.1747 61.1829C20.6934 61.6641 20.0838 61.8886 19.4743 61.8886Z" fill="#FFDA0C"/>
<path d="M12.6092 61.9848C11.9996 61.9848 11.39 61.7601 10.9088 61.2788C9.97833 60.3484 9.97833 58.8084 10.9088 57.878L17.6784 51.1085C18.6088 50.178 20.1488 50.178 21.0792 51.1085C22.0096 52.0389 22.0096 53.5789 21.0792 54.5093L14.3096 61.2788C13.8283 61.7601 13.2187 61.9848 12.6092 61.9848Z" fill="#FFDA0C"/>
<path d="M49.7292 36.0938H27.2709C25.9555 36.0938 24.8646 35.0029 24.8646 33.6875C24.8646 32.3721 25.9555 31.2812 27.2709 31.2812H49.7292C51.0446 31.2812 52.1355 32.3721 52.1355 33.6875C52.1355 35.0029 51.0446 36.0938 49.7292 36.0938Z" fill="#FFDA0C"/>
</svg>
