<svg width="77" height="77" viewBox="0 0 77 77" fill="none" xmlns="http://www.w3.org/2000/svg">
<path d="M38.5 40.9063C28.3296 40.9063 20.0521 32.6288 20.0521 22.4584C20.0521 12.2879 28.3296 4.01044 38.5 4.01044C48.6705 4.01044 56.948 12.2879 56.948 22.4584C56.948 32.6288 48.6705 40.9063 38.5 40.9063ZM38.5 8.82294C30.9925 8.82294 24.8646 14.9509 24.8646 22.4584C24.8646 29.9659 30.9925 36.0938 38.5 36.0938C46.0075 36.0938 52.1355 29.9659 52.1355 22.4584C52.1355 14.9509 46.0075 8.82294 38.5 8.82294Z" fill="#FFDA0C"/>
<path d="M10.9409 72.9896C9.6255 72.9896 8.53467 71.8988 8.53467 70.5833C8.53467 56.8838 21.9777 45.7188 38.5006 45.7188C39.816 45.7188 40.9068 46.8096 40.9068 48.125C40.9068 49.4404 39.816 50.5313 38.5006 50.5313C24.6406 50.5313 13.3472 59.5146 13.3472 70.5833C13.3472 71.8988 12.2563 72.9896 10.9409 72.9896Z" fill="#FFDA0C"/>
<path d="M58.3917 71.0647C51.3975 71.0647 45.7188 65.3859 45.7188 58.3917C45.7188 51.3975 51.3975 45.7188 58.3917 45.7188C65.3859 45.7188 71.0647 51.3975 71.0647 58.3917C71.0647 65.3859 65.3859 71.0647 58.3917 71.0647ZM58.3917 50.5312C54.0605 50.5312 50.5312 54.0605 50.5312 58.3917C50.5312 62.723 54.0605 66.2522 58.3917 66.2522C62.723 66.2522 66.2522 62.723 66.2522 58.3917C66.2522 54.0605 62.723 50.5312 58.3917 50.5312Z" fill="#FFDA0C"/>
<path d="M70.5832 72.9895C69.9736 72.9895 69.364 72.765 68.8827 72.2837L65.6744 69.0754C64.744 68.145 64.744 66.6048 65.6744 65.6744C66.6048 64.744 68.145 64.744 69.0754 65.6744L72.2837 68.8827C73.2141 69.8131 73.2141 71.3533 72.2837 72.2837C71.8025 72.765 71.1928 72.9895 70.5832 72.9895Z" fill="#FFDA0C"/>
</svg>
