<svg width="21" height="20" viewBox="0 0 21 20" fill="none" xmlns="http://www.w3.org/2000/svg">
<path d="M13.7416 1.66675H6.75829C4.08329 1.66675 1.91663 3.83341 1.91663 6.50841V8.54175C1.91663 9.00008 2.29163 9.37508 2.74996 9.37508H17.75C18.2083 9.37508 18.5833 9.00008 18.5833 8.54175V6.50841C18.5833 3.83341 16.4166 1.66675 13.7416 1.66675ZM5.87496 6.87508C5.87496 7.21675 5.59163 7.50008 5.24996 7.50008C4.90829 7.50008 4.62496 7.21675 4.62496 6.87508V5.20841C4.62496 4.86675 4.90829 4.58341 5.24996 4.58341C5.59163 4.58341 5.87496 4.86675 5.87496 5.20841V6.87508ZM9.20829 6.87508C9.20829 7.21675 8.92496 7.50008 8.58329 7.50008C8.24163 7.50008 7.95829 7.21675 7.95829 6.87508V5.20841C7.95829 4.86675 8.24163 4.58341 8.58329 4.58341C8.92496 4.58341 9.20829 4.86675 9.20829 5.20841V6.87508ZM15.25 6.66675H11.9166C11.575 6.66675 11.2916 6.38341 11.2916 6.04175C11.2916 5.70008 11.575 5.41675 11.9166 5.41675H15.25C15.5916 5.41675 15.875 5.70008 15.875 6.04175C15.875 6.38341 15.5916 6.66675 15.25 6.66675Z" fill="#FFDA0C"/>
<path d="M5.87496 6.87508C5.87496 7.21675 5.59163 7.50008 5.24996 7.50008C4.90829 7.50008 4.62496 7.21675 4.62496 6.87508V5.20841C4.62496 4.86675 4.90829 4.58341 5.24996 4.58341C5.59163 4.58341 5.87496 4.86675 5.87496 5.20841V6.87508Z" fill="#FFDA0C"/>
<path d="M5.87496 6.87508C5.87496 7.21675 5.59163 7.50008 5.24996 7.50008C4.90829 7.50008 4.62496 7.21675 4.62496 6.87508V5.20841C4.62496 4.86675 4.90829 4.58341 5.24996 4.58341C5.59163 4.58341 5.87496 4.86675 5.87496 5.20841V6.87508Z" fill="#141414"/>
<path d="M9.20829 6.87508C9.20829 7.21675 8.92496 7.50008 8.58329 7.50008C8.24163 7.50008 7.95829 7.21675 7.95829 6.87508V5.20841C7.95829 4.86675 8.24163 4.58341 8.58329 4.58341C8.92496 4.58341 9.20829 4.86675 9.20829 5.20841V6.87508Z" fill="#FFDA0C"/>
<path d="M9.20829 6.87508C9.20829 7.21675 8.92496 7.50008 8.58329 7.50008C8.24163 7.50008 7.95829 7.21675 7.95829 6.87508V5.20841C7.95829 4.86675 8.24163 4.58341 8.58329 4.58341C8.92496 4.58341 9.20829 4.86675 9.20829 5.20841V6.87508Z" fill="#141414"/>
<path d="M15.25 6.66675H11.9166C11.575 6.66675 11.2916 6.38341 11.2916 6.04175C11.2916 5.70008 11.575 5.41675 11.9166 5.41675H15.25C15.5916 5.41675 15.875 5.70008 15.875 6.04175C15.875 6.38341 15.5916 6.66675 15.25 6.66675Z" fill="#FFDA0C"/>
<path d="M15.25 6.66675H11.9166C11.575 6.66675 11.2916 6.38341 11.2916 6.04175C11.2916 5.70008 11.575 5.41675 11.9166 5.41675H15.25C15.5916 5.41675 15.875 5.70008 15.875 6.04175C15.875 6.38341 15.5916 6.66675 15.25 6.66675Z" fill="#141414"/>
<path d="M1.91663 13.4917C1.91663 16.1667 4.08329 18.3333 6.75829 18.3333H13.7333C16.4166 18.3333 18.5833 16.1667 18.5833 13.4917V11.4583C18.5833 11 18.2083 10.625 17.75 10.625H2.74996C2.29163 10.625 1.91663 11 1.91663 11.4583V13.4917ZM11.9166 13.5417H15.25C15.5916 13.5417 15.875 13.825 15.875 14.1667C15.875 14.5083 15.5916 14.7917 15.25 14.7917H11.9166C11.575 14.7917 11.2916 14.5083 11.2916 14.1667C11.2916 13.825 11.575 13.5417 11.9166 13.5417ZM7.95829 13.3333C7.95829 12.9917 8.24163 12.7083 8.58329 12.7083C8.92496 12.7083 9.20829 12.9917 9.20829 13.3333V15C9.20829 15.3417 8.92496 15.625 8.58329 15.625C8.24163 15.625 7.95829 15.3417 7.95829 15V13.3333ZM4.62496 13.3333C4.62496 12.9917 4.90829 12.7083 5.24996 12.7083C5.59163 12.7083 5.87496 12.9917 5.87496 13.3333V15C5.87496 15.3417 5.59163 15.625 5.24996 15.625C4.90829 15.625 4.62496 15.3417 4.62496 15V13.3333Z" fill="#FFDA0C"/>
<path d="M4.62496 13.3333C4.62496 12.9917 4.90829 12.7083 5.24996 12.7083C5.59163 12.7083 5.87496 12.9917 5.87496 13.3333V15C5.87496 15.3417 5.59163 15.625 5.24996 15.625C4.90829 15.625 4.62496 15.3417 4.62496 15V13.3333Z" fill="#FFDA0C"/>
<path d="M4.62496 13.3333C4.62496 12.9917 4.90829 12.7083 5.24996 12.7083C5.59163 12.7083 5.87496 12.9917 5.87496 13.3333V15C5.87496 15.3417 5.59163 15.625 5.24996 15.625C4.90829 15.625 4.62496 15.3417 4.62496 15V13.3333Z" fill="#141414"/>
<path d="M7.95829 13.3333C7.95829 12.9917 8.24163 12.7083 8.58329 12.7083C8.92496 12.7083 9.20829 12.9917 9.20829 13.3333V15C9.20829 15.3417 8.92496 15.625 8.58329 15.625C8.24163 15.625 7.95829 15.3417 7.95829 15V13.3333Z" fill="#FFDA0C"/>
<path d="M7.95829 13.3333C7.95829 12.9917 8.24163 12.7083 8.58329 12.7083C8.92496 12.7083 9.20829 12.9917 9.20829 13.3333V15C9.20829 15.3417 8.92496 15.625 8.58329 15.625C8.24163 15.625 7.95829 15.3417 7.95829 15V13.3333Z" fill="#141414"/>
<path d="M11.9166 13.5417H15.25C15.5916 13.5417 15.875 13.825 15.875 14.1667C15.875 14.5083 15.5916 14.7917 15.25 14.7917H11.9166C11.575 14.7917 11.2916 14.5083 11.2916 14.1667C11.2916 13.825 11.575 13.5417 11.9166 13.5417Z" fill="#FFDA0C"/>
<path d="M11.9166 13.5417H15.25C15.5916 13.5417 15.875 13.825 15.875 14.1667C15.875 14.5083 15.5916 14.7917 15.25 14.7917H11.9166C11.575 14.7917 11.2916 14.5083 11.2916 14.1667C11.2916 13.825 11.575 13.5417 11.9166 13.5417Z" fill="#141414"/>
</svg>
