<svg width="21" height="20" viewBox="0 0 21 20" fill="none" xmlns="http://www.w3.org/2000/svg">
<path d="M14.9166 2.0249H6.58329C4.08329 2.0249 2.41663 3.69157 2.41663 6.19157V11.1916C2.41663 13.6916 4.08329 15.3582 6.58329 15.3582V17.1332C6.58329 17.7999 7.32496 18.1999 7.87496 17.8249L11.5833 15.3582H14.9166C17.4166 15.3582 19.0833 13.6916 19.0833 11.1916V6.19157C19.0833 3.69157 17.4166 2.0249 14.9166 2.0249ZM10.75 12.1666C10.4 12.1666 10.125 11.8832 10.125 11.5416C10.125 11.1999 10.4 10.9166 10.75 10.9166C11.1 10.9166 11.375 11.1999 11.375 11.5416C11.375 11.8832 11.1 12.1666 10.75 12.1666ZM11.8 8.70824C11.475 8.9249 11.375 9.06657 11.375 9.2999V9.4749C11.375 9.81657 11.0916 10.0999 10.75 10.0999C10.4083 10.0999 10.125 9.81657 10.125 9.4749V9.2999C10.125 8.34471 10.8166 7.86958 11.0903 7.68155C11.0936 7.67929 11.0968 7.67708 11.1 7.6749C11.4083 7.46657 11.5083 7.3249 11.5083 7.10824C11.5083 6.69157 11.1666 6.3499 10.75 6.3499C10.3333 6.3499 9.99163 6.69157 9.99163 7.10824C9.99163 7.4499 9.70829 7.73324 9.36663 7.73324C9.02496 7.73324 8.74163 7.4499 8.74163 7.10824C8.74163 5.9999 9.64163 5.0999 10.75 5.0999C11.8583 5.0999 12.7583 5.9999 12.7583 7.10824C12.7583 8.05824 12.0583 8.53324 11.8 8.70824Z" fill="#FFDA0C"/>
<path d="M11.8 8.70824C11.475 8.9249 11.375 9.06657 11.375 9.2999V9.4749C11.375 9.81657 11.0916 10.0999 10.75 10.0999C10.4083 10.0999 10.125 9.81657 10.125 9.4749V9.2999C10.125 8.34471 10.8166 7.86958 11.0903 7.68155L11.1 7.6749C11.4083 7.46657 11.5083 7.3249 11.5083 7.10824C11.5083 6.69157 11.1666 6.3499 10.75 6.3499C10.3333 6.3499 9.99163 6.69157 9.99163 7.10824C9.99163 7.4499 9.70829 7.73324 9.36663 7.73324C9.02496 7.73324 8.74163 7.4499 8.74163 7.10824C8.74163 5.9999 9.64163 5.0999 10.75 5.0999C11.8583 5.0999 12.7583 5.9999 12.7583 7.10824C12.7583 8.05824 12.0583 8.53324 11.8 8.70824Z" fill="#FFDA0C"/>
<path d="M11.8 8.70824C11.475 8.9249 11.375 9.06657 11.375 9.2999V9.4749C11.375 9.81657 11.0916 10.0999 10.75 10.0999C10.4083 10.0999 10.125 9.81657 10.125 9.4749V9.2999C10.125 8.34471 10.8166 7.86958 11.0903 7.68155L11.1 7.6749C11.4083 7.46657 11.5083 7.3249 11.5083 7.10824C11.5083 6.69157 11.1666 6.3499 10.75 6.3499C10.3333 6.3499 9.99163 6.69157 9.99163 7.10824C9.99163 7.4499 9.70829 7.73324 9.36663 7.73324C9.02496 7.73324 8.74163 7.4499 8.74163 7.10824C8.74163 5.9999 9.64163 5.0999 10.75 5.0999C11.8583 5.0999 12.7583 5.9999 12.7583 7.10824C12.7583 8.05824 12.0583 8.53324 11.8 8.70824Z" fill="#141414"/>
<path d="M10.75 12.1666C10.4 12.1666 10.125 11.8832 10.125 11.5416C10.125 11.1999 10.4 10.9166 10.75 10.9166C11.1 10.9166 11.375 11.1999 11.375 11.5416C11.375 11.8832 11.1 12.1666 10.75 12.1666Z" fill="#FFDA0C"/>
<path d="M10.75 12.1666C10.4 12.1666 10.125 11.8832 10.125 11.5416C10.125 11.1999 10.4 10.9166 10.75 10.9166C11.1 10.9166 11.375 11.1999 11.375 11.5416C11.375 11.8832 11.1 12.1666 10.75 12.1666Z" fill="#141414"/>
</svg>
