<svg width="21" height="20" viewBox="0 0 21 20" fill="none" xmlns="http://www.w3.org/2000/svg">
<path d="M14.9166 15.3584H11.5833L7.87495 17.825C7.32495 18.1917 6.58329 17.8001 6.58329 17.1334V15.3584C4.08329 15.3584 2.41663 13.6917 2.41663 11.1917V6.19169C2.41663 3.69169 4.08329 2.02502 6.58329 2.02502H14.9166C17.4166 2.02502 19.0833 3.69169 19.0833 6.19169V11.1917C19.0833 13.6917 17.4166 15.3584 14.9166 15.3584Z" stroke="#94A3B8" stroke-width="1.5" stroke-miterlimit="10" stroke-linecap="round" stroke-linejoin="round"/>
<path d="M10.75 9.46668V9.29171C10.75 8.72504 11.1 8.42503 11.45 8.18336C11.7917 7.95003 12.1333 7.65004 12.1333 7.10004C12.1333 6.33337 11.5167 5.71667 10.75 5.71667C9.98334 5.71667 9.3667 6.33337 9.3667 7.10004" stroke="#94A3B8" stroke-width="1.5" stroke-linecap="round" stroke-linejoin="round"/>
<path d="M10.7463 11.4583H10.7538" stroke="#94A3B8" stroke-width="1.5" stroke-linecap="round" stroke-linejoin="round"/>
</svg>
