<svg width="20" height="20" viewBox="0 0 20 20" fill="none" xmlns="http://www.w3.org/2000/svg">
<path d="M9.58329 1.66663C5.21663 1.66663 1.66663 5.21663 1.66663 9.58329C1.66663 13.95 5.21663 17.5 9.58329 17.5C13.95 17.5 17.5 13.95 17.5 9.58329C17.5 5.21663 13.95 1.66663 9.58329 1.66663ZM9.58329 11.4583H7.08329C6.74163 11.4583 6.45829 11.175 6.45829 10.8333C6.45829 10.4916 6.74163 10.2083 7.08329 10.2083H9.58329C9.92496 10.2083 10.2083 10.4916 10.2083 10.8333C10.2083 11.175 9.92496 11.4583 9.58329 11.4583ZM12.0833 8.95829H7.08329C6.74163 8.95829 6.45829 8.67496 6.45829 8.33329C6.45829 7.99163 6.74163 7.70829 7.08329 7.70829H12.0833C12.425 7.70829 12.7083 7.99163 12.7083 8.33329C12.7083 8.67496 12.425 8.95829 12.0833 8.95829Z" fill="#FFDA0C"/>
<path d="M9.58329 11.4583H7.08329C6.74163 11.4583 6.45829 11.175 6.45829 10.8333C6.45829 10.4916 6.74163 10.2083 7.08329 10.2083H9.58329C9.92496 10.2083 10.2083 10.4916 10.2083 10.8333C10.2083 11.175 9.92496 11.4583 9.58329 11.4583Z" fill="#FFDA0C"/>
<path d="M9.58329 11.4583H7.08329C6.74163 11.4583 6.45829 11.175 6.45829 10.8333C6.45829 10.4916 6.74163 10.2083 7.08329 10.2083H9.58329C9.92496 10.2083 10.2083 10.4916 10.2083 10.8333C10.2083 11.175 9.92496 11.4583 9.58329 11.4583Z" fill="#1E1F22"/>
<path d="M12.0833 8.95829H7.08329C6.74163 8.95829 6.45829 8.67496 6.45829 8.33329C6.45829 7.99163 6.74163 7.70829 7.08329 7.70829H12.0833C12.425 7.70829 12.7083 7.99163 12.7083 8.33329C12.7083 8.67496 12.425 8.95829 12.0833 8.95829Z" fill="#FFDA0C"/>
<path d="M12.0833 8.95829H7.08329C6.74163 8.95829 6.45829 8.67496 6.45829 8.33329C6.45829 7.99163 6.74163 7.70829 7.08329 7.70829H12.0833C12.425 7.70829 12.7083 7.99163 12.7083 8.33329C12.7083 8.67496 12.425 8.95829 12.0833 8.95829Z" fill="#1E1F22"/>
<path d="M17.7504 18.3321C17.6004 18.3321 17.4504 18.2738 17.342 18.1655L15.792 16.6155C15.567 16.3905 15.567 16.0238 15.792 15.7905C16.017 15.5655 16.3837 15.5655 16.617 15.7905L18.167 17.3405C18.392 17.5655 18.392 17.9321 18.167 18.1655C18.0504 18.2738 17.9004 18.3321 17.7504 18.3321Z" fill="#FFDA0C"/>
</svg>
