<svg width="21" height="20" viewBox="0 0 21 20" fill="none" xmlns="http://www.w3.org/2000/svg">
<path d="M3 7.59163V12.4C3 14.1666 3 14.1666 4.66667 15.2916L9.25 17.9416C9.94167 18.3416 11.0667 18.3416 11.75 17.9416L16.3333 15.2916C18 14.1666 18 14.1666 18 12.4083V7.59163C18 5.8333 18 5.8333 16.3333 4.7083L11.75 2.0583C11.0667 1.6583 9.94167 1.6583 9.25 2.0583L4.66667 4.7083C3 5.8333 3 5.8333 3 7.59163Z" stroke="#94A3B8" stroke-width="1.5" stroke-linecap="round" stroke-linejoin="round"/>
<path d="M10.5 12.5C11.8807 12.5 13 11.3807 13 10C13 8.61929 11.8807 7.5 10.5 7.5C9.11929 7.5 8 8.61929 8 10C8 11.3807 9.11929 12.5 10.5 12.5Z" stroke="#94A3B8" stroke-width="1.5" stroke-linecap="round" stroke-linejoin="round"/>
</svg>
