<svg width="21" height="20" viewBox="0 0 21 20" fill="none" xmlns="http://www.w3.org/2000/svg">
<path d="M16.2833 4.51686L11.9749 2.0252C11.1499 1.5502 9.85828 1.5502 9.03328 2.0252L4.68328 4.53353C2.95828 5.70019 2.85828 5.87519 2.85828 7.73353V12.2585C2.85828 14.1169 2.95828 14.3002 4.71661 15.4835L9.02494 17.9752C9.44161 18.2169 9.97494 18.3335 10.4999 18.3335C11.0249 18.3335 11.5583 18.2169 11.9666 17.9752L16.3166 15.4669C18.0416 14.3002 18.1416 14.1252 18.1416 12.2669V7.73353C18.1416 5.87519 18.0416 5.70019 16.2833 4.51686ZM10.4999 12.7085C9.00828 12.7085 7.79161 11.4919 7.79161 10.0002C7.79161 8.50853 9.00828 7.29186 10.4999 7.29186C11.9916 7.29186 13.2083 8.50853 13.2083 10.0002C13.2083 11.4919 11.9916 12.7085 10.4999 12.7085Z" fill="#FFDA0C"/>
<path d="M10.4999 12.7085C9.00828 12.7085 7.79161 11.4919 7.79161 10.0002C7.79161 8.50853 9.00828 7.29186 10.4999 7.29186C11.9916 7.29186 13.2083 8.50853 13.2083 10.0002C13.2083 11.4919 11.9916 12.7085 10.4999 12.7085Z" fill="#FFDA0C"/>
<path d="M10.4999 12.7085C9.00828 12.7085 7.79161 11.4919 7.79161 10.0002C7.79161 8.50853 9.00828 7.29186 10.4999 7.29186C11.9916 7.29186 13.2083 8.50853 13.2083 10.0002C13.2083 11.4919 11.9916 12.7085 10.4999 12.7085Z" fill="#141414"/>
</svg>
