<svg width="19" height="18" viewBox="0 0 19 18" fill="none" xmlns="http://www.w3.org/2000/svg">
<path d="M17 9C17 4.86 13.64 1.5 9.5 1.5C5.36 1.5 2 4.86 2 9C2 13.14 5.36 16.5 9.5 16.5" stroke="#0F0F0F" stroke-linecap="round" stroke-linejoin="round"/>
<path d="M6.5 2.25H7.25C5.7875 6.63 5.7875 11.37 7.25 15.75H6.5" stroke="#0F0F0F" stroke-linecap="round" stroke-linejoin="round"/>
<path d="M11.75 2.25C12.4775 4.44 12.845 6.72 12.845 9" stroke="#0F0F0F" stroke-linecap="round" stroke-linejoin="round"/>
<path d="M2.75 12V11.25C4.94 11.9775 7.22 12.345 9.5 12.345" stroke="#0F0F0F" stroke-linecap="round" stroke-linejoin="round"/>
<path d="M2.75 6.74995C7.13 5.28745 11.87 5.28745 16.25 6.74995" stroke="#0F0F0F" stroke-linecap="round" stroke-linejoin="round"/>
<path d="M14.15 16.05C15.4755 16.05 16.55 14.9755 16.55 13.65C16.55 12.3245 15.4755 11.25 14.15 11.25C12.8245 11.25 11.75 12.3245 11.75 13.65C11.75 14.9755 12.8245 16.05 14.15 16.05Z" stroke="#0F0F0F" stroke-linecap="round" stroke-linejoin="round"/>
<path d="M17 16.5L16.25 15.75" stroke="#0F0F0F" stroke-linecap="round" stroke-linejoin="round"/>
</svg>
