<svg width="18" height="18" viewBox="0 0 18 18" fill="none" xmlns="http://www.w3.org/2000/svg">
<path d="M15.4425 7.91254V5.34004C15.4425 4.41754 14.7375 3.39754 13.875 3.07504L10.1325 1.67254C9.51 1.44004 8.49 1.44004 7.8675 1.67254L4.125 3.08254C3.2625 3.40504 2.5575 4.42504 2.5575 5.34004V10.9125C2.5575 11.7975 3.14249 12.96 3.85499 13.4925L7.07999 15.9C7.60499 16.305 8.3025 16.5 9 16.5" stroke="#F4404C" stroke-linecap="round" stroke-linejoin="round"/>
<path d="M12 15C13.6569 15 15 13.6569 15 12C15 10.3431 13.6569 9 12 9C10.3431 9 9 10.3431 9 12C9 13.6569 10.3431 15 12 15Z" stroke="#F4404C" stroke-linecap="round" stroke-linejoin="round"/>
<path d="M15.7466 15.75H15.7534" stroke="#F4404C" stroke-linecap="round" stroke-linejoin="round"/>
</svg>
