<svg width="28" height="28" viewBox="0 0 28 28" fill="none" xmlns="http://www.w3.org/2000/svg">
<path opacity="0.4" d="M2.33331 15.0267V12.9734C2.33331 11.76 3.32498 10.7567 4.54998 10.7567C6.66165 10.7567 7.52498 9.26336 6.46331 7.43169C5.85665 6.38169 6.21831 5.01669 7.27998 4.41003L9.29831 3.25503C10.22 2.70669 11.41 3.03336 11.9583 3.95503L12.0866 4.17669C13.1366 6.00836 14.8633 6.00836 15.925 4.17669L16.0533 3.95503C16.6016 3.03336 17.7916 2.70669 18.7133 3.25503L20.7316 4.41003C21.7933 5.01669 22.155 6.38169 21.5483 7.43169C20.4866 9.26336 21.35 10.7567 23.4616 10.7567C24.675 10.7567 25.6783 11.7484 25.6783 12.9734V15.0267C25.6783 16.24 24.6866 17.2434 23.4616 17.2434C21.35 17.2434 20.4866 18.7367 21.5483 20.5684C22.155 21.63 21.7933 22.9834 20.7316 23.59L18.7133 24.745C17.7916 25.2934 16.6016 24.9667 16.0533 24.045L15.925 23.8234C14.875 21.9917 13.1483 21.9917 12.0866 23.8234L11.9583 24.045C11.41 24.9667 10.22 25.2934 9.29831 24.745L7.27998 23.59C6.21831 22.9834 5.85665 21.6184 6.46331 20.5684C7.52498 18.7367 6.66165 17.2434 4.54998 17.2434C3.32498 17.2434 2.33331 16.24 2.33331 15.0267Z" fill="#141414"/>
<path d="M14 17.7916C16.0941 17.7916 17.7916 16.0941 17.7916 14C17.7916 11.9059 16.0941 10.2083 14 10.2083C11.9059 10.2083 10.2083 11.9059 10.2083 14C10.2083 16.0941 11.9059 17.7916 14 17.7916Z" fill="#141414"/>
</svg>
