<svg width="18" height="18" viewBox="0 0 18 18" fill="none" xmlns="http://www.w3.org/2000/svg">
<path d="M13.5 14.1448H12.93C12.33 14.1448 11.76 14.3773 11.34 14.7973L10.0575 16.0648C9.4725 16.6423 8.52 16.6423 7.935 16.0648L6.6525 14.7973C6.2325 14.3773 5.655 14.1448 5.0625 14.1448H4.5C3.255 14.1448 2.25 13.1473 2.25 11.9173V3.7348C2.25 2.5048 3.255 1.50732 4.5 1.50732H13.5C14.745 1.50732 15.75 2.5048 15.75 3.7348V11.9173C15.75 13.1398 14.745 14.1448 13.5 14.1448Z" stroke="#94A3B8" stroke-width="1.5" stroke-miterlimit="10" stroke-linecap="round" stroke-linejoin="round"/>
<path d="M5.25 6.87009C5.25 6.17259 5.82 5.60254 6.5175 5.60254C7.215 5.60254 7.785 6.17259 7.785 6.87009C7.785 8.28009 5.7825 8.43008 5.34 9.77258C5.25 10.0501 5.4825 10.3276 5.775 10.3276H7.785" stroke="#94A3B8" stroke-width="1.5" stroke-linecap="round" stroke-linejoin="round"/>
<path d="M12.0301 10.3201V6.03767C12.0301 5.84267 11.9026 5.67013 11.7151 5.61763C11.5276 5.56513 11.3251 5.64013 11.2201 5.80513C10.6801 6.67513 10.0951 7.66514 9.58507 8.53514C9.50257 8.67764 9.50257 8.86515 9.58507 9.00765C9.66757 9.15015 9.82507 9.2401 9.99757 9.2401H12.7501" stroke="#94A3B8" stroke-width="1.5" stroke-linecap="round" stroke-linejoin="round"/>
</svg>
