<svg width="18" height="18" viewBox="0 0 18 18" fill="none" xmlns="http://www.w3.org/2000/svg">
<path d="M8.99999 17.0701C8.18249 17.0701 7.37249 16.8301 6.73499 16.3576L3.50999 13.9501C2.65499 13.3126 1.98749 11.9776 1.98749 10.9201V5.34008C1.98749 4.18508 2.83499 2.95508 3.92249 2.55008L7.66499 1.14758C8.40749 0.870078 9.57749 0.870078 10.32 1.14758L14.0625 2.55008C15.15 2.95508 15.9975 4.18508 15.9975 5.34008V10.9126C15.9975 11.9776 15.33 13.3051 14.475 13.9426L11.25 16.3501C10.6275 16.8301 9.81749 17.0701 8.99999 17.0701ZM8.06249 2.20508L4.31999 3.60758C3.68249 3.84758 3.11999 4.65758 3.11999 5.34758V10.9201C3.11999 11.6326 3.62249 12.6301 4.18499 13.0501L7.40999 15.4576C8.27249 16.1026 9.72749 16.1026 10.5975 15.4576L13.8225 13.0501C14.3925 12.6226 14.8875 11.6326 14.8875 10.9201V5.34008C14.8875 4.65758 14.325 3.84758 13.6875 3.60008L9.94499 2.19758C9.43499 2.01758 8.56499 2.01758 8.06249 2.20508Z" fill="#34A853"/>
<path d="M7.99499 10.6726C7.85249 10.6726 7.70999 10.6201 7.59749 10.5076L6.38999 9.30009C6.17249 9.08259 6.17249 8.72259 6.38999 8.50509C6.60749 8.28759 6.96749 8.28759 7.18499 8.50509L7.99499 9.31509L10.8225 6.48759C11.04 6.27009 11.4 6.27009 11.6175 6.48759C11.835 6.70509 11.835 7.06509 11.6175 7.28259L8.39249 10.5076C8.27999 10.6201 8.13749 10.6726 7.99499 10.6726Z" fill="#34A853"/>
</svg>
